<svg width="228" height="313" viewBox="0 0 228 313" fill="none" xmlns="http://www.w3.org/2000/svg">
<path d="M114 0L99.75 15.9733C99.75 15.9733 75.43 43.5462 50.92 79.2959C26.41 115.046 0 157.831 0 198.905C0 229.165 12.0107 258.185 33.3898 279.582C54.769 300.979 83.7653 313 114 313C144.235 313 173.231 300.979 194.61 279.582C215.989 258.185 228 229.165 228 198.905C228 157.831 201.59 115.046 177.08 79.2959C152.57 43.5462 128.25 15.9733 128.25 15.9733L114 0ZM114 59.5194C122.36 69.4077 129.96 77.5844 145.92 100.784C168.91 134.252 190 176.847 190 198.905C190 241.12 156.18 274.968 114 274.968C71.82 274.968 38 241.12 38 198.905C38 176.847 59.09 134.252 82.08 100.784C98.04 77.5844 105.64 69.4077 114 59.5194Z" fill="#72CEE2" fill-opacity="0.6"/>
</svg>
