<?xml version="1.0" encoding="utf-8"?>
<!-- Generator: Adobe Illustrator 27.5.0, SVG Export Plug-In . SVG Version: 6.00 Build 0)  -->
<svg version="1.1" id="logo" xmlns="http://www.w3.org/2000/svg" xmlns:xlink="http://www.w3.org/1999/xlink" x="0px" y="0px"
	 viewBox="0 0 231.8 118.5" style="enable-background:new 0 0 231.8 118.5;" xml:space="preserve">
<style type="text/css">
	.st0{fill:none;}
	.st1{fill:#FFFFFF;}
	.st2{fill:#FA5E1A;}
	.st3{fill:#351914;}
</style>
<g>
	<polygon class="st0" points="61.4,78.5 71.5,78.4 69.8,66.6 	"/>
	<g>
		<g>
			<path class="st1" d="M224.4,55.9c-1.6-3.3-4-6.6-7.1-9.7c-3.5-3.5-7.7-6.8-13.1-10l7.6-2.7l3.9-1.4l-3.6-2.2L173.1,6l-2-1.2
				l-0.9,2.1l-3.3,7.6c-6.7-0.6-14.3-1.1-21.9-1.3c-2.9-0.1-5.9-0.1-8.9-0.1c-5.3,0-10.6,0.1-15.5,0.4C89,15,60,21,39,30.3
				c-10.4,4.7-18.7,10-24.5,15.9c-3.1,3.1-5.5,6.4-7.1,9.7c-1.7,3.6-2.7,7.2-2.7,10.9c0,0.3,0,0.6,0,0.9c0.1,4.1,1.1,8.1,2.9,11.7
				c2.9,5.8,8,10.9,15.2,15.3c9.1,5.5,21.6,9.9,37.1,13c13.2,2.6,28.8,4.3,45,4.9l0.2,0c0.2,0,0.5,0,0.7,0c2.1,0.1,4.2,0.1,6.2,0.1
				c1.3,0,2.5,0,3.8,0c1.2,0,2.5,0,3.8,0c2,0,4.1,0,6.2-0.1c0.3,0,0.5,0,0.7,0l0.2,0c16.3-0.6,31.8-2.3,45.1-4.9
				c15.5-3.1,28-7.5,37.1-13c7.2-4.4,12.3-9.5,15.2-15.3c1.9-3.7,2.8-7.6,2.9-11.7c0-0.3,0-0.6,0-0.9
				C227,63.2,226.1,59.5,224.4,55.9z"/>
			<path class="st2" d="M38.3,85.7c-3.4-2.4-5.9-4.8-7.6-7.3c-2.5-3.5-3.5-6.9-3.4-10c0-2.2,0.8-4.4,2.1-6.6
				c2.4-3.8,7-7.5,13.2-10.8c9.4-5,22.5-9.1,37.8-11.8c13.7-2.5,29.1-3.8,45-3.8l1.1,0c1.5,0,3,0,4.5,0.1
				c10.4,0.3,20.4,1.1,29.8,2.4l-1.3,3l-3.1,7.2l2.6-0.8c0,0,0,0,0,0l48.4-16.1L174,10.9c0,0,0,0,0,0l-1.2-0.8l-0.6,1.3c0,0,0,0,0,0
				l-3,6.9c-7.4-0.8-15.7-1.3-24.3-1.5c-0.7,0-1.4,0-2.2,0c-0.1,0-0.1,0-0.2,0c-1.5,0-2.9,0-4.4-0.1c0,0-0.1,0-0.1,0
				c-1.5,0-3,0-4.5,0c0,0,0,0-0.1,0c-1.5,0-3,0-4.5,0.1c0,0,0,0,0,0c-0.9,0-1.7,0-2.6,0.1l-0.9,0c-1.6,0.1-3.1,0.1-4.7,0.2
				c-32.6,1.5-60.5,7.7-80.3,16.5c-9.9,4.4-17.8,9.5-23.4,15.1c-5.5,5.6-8.7,11.7-8.8,18.2c0,0.2,0,0.5,0,0.7c0.1,3.6,1,7,2.5,10.1
				c2.8,5.4,7.6,10,13.8,13.8c9.4,5.7,21.9,9.8,35.9,12.5c14,2.8,29.4,4.3,44.4,4.8h0c0.3,0,0.6,0,0.9,0h0c26.3,0.7,40.1-3,40.2-3.1
				c0.6-0.2,1-0.8,0.9-1.4c-0.1-0.6-0.7-1.1-1.3-1.1c0,0-0.7,0-1.9,0.1c-3.7,0.1-12.6,0.4-23.6,0.1c-5.2-0.1-10.9-0.4-16.7-0.8
				c-24.4-1.7-41.8-5.8-53.7-10.8H33.4C33.4,92,35.4,89.5,38.3,85.7z"/>
		</g>
		<g>
			<path class="st2" d="M136.3,67.6c-1.5-1-4.2-1.9-6.7-2.1c-5.3-0.3-10.2,0.2-14.4,3.7c-3.9,3.2-4,6.8-4,6.8s3.4-2.3,7.8-3.3
				c4.9-1.1,8,0.4,8.8,2.1c1.6,3.5-6,9.4-14.6,9.2c-7.9-0.2-10.6-4-9.8-7.6c1.3-6.4,9.5-9.7,9.5-9.7s-3.9-1.6-2.3-5
				c0.8-1.4,3-3.6,7.4-3.9c7.7-0.4,10.6,3,10.6,3s1.6-4.7-2.4-8.6c-3.3-2.7-7.4-3.3-10.7-3.2c-5,0.3-11.5,2.1-15.5,7.5
				c-2.2,3-2.3,7.2-1.3,10.1c0,0-4.8,2.3-7.5,6.5c1.1,5.7,2.2,11.5,3,15.2c3,2.2,7.5,4.1,12.1,4.6c7.3,0.8,15.5-0.3,21.3-2.8
				c5-2.1,9.3-5.7,11.3-9.9C138,76.6,137.2,72.1,136.3,67.6C136.3,67.6,136.3,67.6,136.3,67.6z"/>
			<g>
				<path class="st3" d="M200.1,50.5c-4.3,0-6.6,2.1-7.4,3.6c-0.8,1.5-9,16.9-9,16.9s-1.4-15.1-1.7-16.9c-0.3-2.3-2.5-3.5-4.9-3.5
					c-1.2,0-5.9,0-7.1,0c-2.6,0-5,0.8-6.7,3.6c-0.9,1.6-9.5,16.8-9.5,16.8s-2.3-14.9-2.7-16.5c-0.4-1.6-2.1-4-6.3-4
					c-2.9,0-11.7,0-11.7,0s1.5,8.3,3,17.1c0.8,4.5,1.6,9,2.3,12.7c0.6,3.1,1,5.5,1.2,6.5c0.9,4.6,4.6,5.3,7.6,5.3c0.8,0,2.1,0,4.1,0
					c3.8,0,5.8-2.1,6.9-3.7c1.1-1.6,9.3-14.8,9.3-14.8s1.8,10.3,2.5,13.7c0.7,3.4,3.9,4.9,7,4.9c1.4,0,3.8,0,5.9,0
					c2.9,0,6.2-2.4,7.6-4.7c1.4-2.3,21.4-36.8,21.4-36.8S202.1,50.5,200.1,50.5z"/>
				<path class="st3" d="M87.9,56.8c-0.5-2.9-1.1-6.3-1.1-6.3s-5.7,0-6.8,0c-1.6,0-3.4,0-5.1,0c-6.1,0-10.6,1.9-13.6,5.6
					C59.5,58.3,45.8,76,38.3,85.7c-2.9,3.7-4.9,6.3-4.9,6.3h16.5h1.9l4.3-5.3l16.6,0l0.8,5.4h21.2c0,0-0.3-1.4-0.7-3.7
					c-0.7-3.6-1.9-9.5-3-15.2C89.5,65.8,88.1,58.6,87.9,56.8z M61.4,78.5l8.5-11.9l1.7,11.8L61.4,78.5z"/>
			</g>
		</g>
	</g>
	<path class="st3" d="M213.5,109.8l2.7-7.1h2.6v9.6h-1.7v-7.8h0l-3,7.8h-1.2l-3-7.8h0v7.8h-1.7v-9.6h2.6L213.5,109.8z M206.5,104.1
		h-2.9v8.2h-1.7v-8.2h-3v-1.4h7.6V104.1z"/>
</g>
</svg>
