<svg id="Layer_1" data-name="Layer 1" xmlns="http://www.w3.org/2000/svg" viewBox="0 0 148.61 48.41"><defs><style>.cls-1{fill:#0898a9;}.cls-2{fill:#e5ba31;}.cls-3{fill:#d9aa28;}</style></defs><title>Untitled-1</title><polygon class="cls-1" points="30.78 33.87 28.7 42.1 26.05 33.87 22.36 33.87 19.7 42.09 17.59 33.87 13.79 33.87 17.62 47.96 21.38 47.96 24.16 39.35 26.93 47.96 30.63 47.96 34.46 33.87 30.78 33.87"/><path class="cls-1" d="M8.35,49.41A7.44,7.44,0,0,1,1,41.93a7.56,7.56,0,0,1,2.14-5.3,7.27,7.27,0,0,1,5.2-2.21h0A7.29,7.29,0,0,1,13.89,37l-2.65,2.27a3.84,3.84,0,0,0-5.65-.14,4,4,0,0,0,2.76,6.78,3.86,3.86,0,0,0,2.89-1.31l2.65,2.27a7.33,7.33,0,0,1-5.52,2.56Z" transform="translate(-1 -1)"/><path class="cls-1" d="M37.26,49V34.87H44c2.54,0,4.24,1.52,4.24,3.78A3.28,3.28,0,0,1,47,41.28l-.51.38L47,42a3.4,3.4,0,0,1,1.64,3,4,4,0,0,1-4.25,4Zm3.38-2.79h2.68a1.44,1.44,0,1,0,0-2.85H40.64Zm0-5.88h2.43c.92,0,1.48-.5,1.48-1.3,0-.39-.14-1.29-1.51-1.29h-2.4Z" transform="translate(-1 -1)"/><polygon class="cls-2" points="13.57 8.25 13.57 8.25 13.63 8.25 13.57 8.25"/><path class="cls-3" d="M19.75,18.58l3.4-7.37a2,2,0,0,1,3.69,0l3.4,7.37a.66.66,0,0,0,1.23,0l3.88-9.33h0a1,1,0,0,1-1-.5,1.11,1.11,0,0,1-.07-.46V5.69a.13.13,0,0,0-.18-.12s-1.28.53-1.9.85a.84.84,0,0,1-.34.11,1,1,0,0,1-.88-.72L30.63,5a.13.13,0,0,0-.22,0L29.26,6.61a.69.69,0,0,1-.55.28h0a.67.67,0,0,1-.66-.67V2.87a.13.13,0,0,0-.22-.1l-.18.16a.88.88,0,0,1-.55.21.9.9,0,0,1-.74-.42L25.1,1.05A.13.13,0,0,0,25,1h0a.1.1,0,0,0-.1.05L23.62,2.72a.9.9,0,0,1-.74.42.88.88,0,0,1-.55-.21l-.19-.16a.13.13,0,0,0-.21.1V6.22a.67.67,0,0,1-.66.67h0a.68.68,0,0,1-.55-.28c-.07-.09-.83-1.17-1.16-1.61a.13.13,0,0,0-.22,0l-.3.78c-.2.46-.53.74-.89.72a.89.89,0,0,1-.34-.11c-.61-.32-1.89-.85-1.89-.85a.13.13,0,0,0-.18.12v2.6a1.11,1.11,0,0,1-.07.46,1,1,0,0,1-1,.5h0l3.89,9.33A.66.66,0,0,0,19.75,18.58Z" transform="translate(-1 -1)"/><path class="cls-1" d="M35.42,9.25h-.07l-3.88,9.33a.66.66,0,0,1-1.23,0l-3.4-7.37a2,2,0,0,0-3.69,0l-3.4,7.37a.66.66,0,0,1-1.23,0L14.63,9.25H9.11l7.15,17.68h5.91l2.21-6.08a.65.65,0,0,1,1.23,0l2.21,6.08h5.9L40.88,9.25Z" transform="translate(-1 -1)"/><path class="cls-1" d="M60.12,29.25a5.32,5.32,0,0,1,5.35-5.54,4.63,4.63,0,0,1,4.78,3.45l-1.69.57a3,3,0,0,0-3.09-2.33A3.54,3.54,0,0,0,62,29.25a3.52,3.52,0,0,0,3.52,3.81,3.18,3.18,0,0,0,3.17-2.34l1.64.54a4.75,4.75,0,0,1-4.81,3.52A5.25,5.25,0,0,1,60.12,29.25Z" transform="translate(-1 -1)"/><path class="cls-1" d="M73.55,30.38l1.87-.29c.42-.06.54-.27.54-.52,0-.62-.42-1.11-1.38-1.11a1.41,1.41,0,0,0-1.5,1.32l-1.59-.36A2.87,2.87,0,0,1,74.57,27c2.24,0,3.1,1.27,3.1,2.72v3.63a6.17,6.17,0,0,0,.09,1.17H76.14a3.67,3.67,0,0,1-.08-.93,2.54,2.54,0,0,1-2.24,1.15,2.29,2.29,0,0,1-2.48-2.2A2.25,2.25,0,0,1,73.55,30.38ZM76,31.53V31.2l-1.9.29c-.54.09-1,.39-1,1a1,1,0,0,0,1.07.94A1.66,1.66,0,0,0,76,31.53Z" transform="translate(-1 -1)"/><path class="cls-1" d="M81,34.56H79.22v-7.3h1.69v1a2.44,2.44,0,0,1,2.16-1.18,2.58,2.58,0,0,1,2.64,2.89v4.62H84V30.24c0-.9-.41-1.62-1.5-1.62A1.54,1.54,0,0,0,81,30.35Z" transform="translate(-1 -1)"/><path class="cls-1" d="M89.06,30.38l1.87-.29c.42-.06.54-.27.54-.52,0-.62-.42-1.11-1.38-1.11a1.41,1.41,0,0,0-1.5,1.32L87,29.42A2.87,2.87,0,0,1,90.08,27c2.24,0,3.1,1.27,3.1,2.72v3.63a6.17,6.17,0,0,0,.09,1.17H91.65a3.67,3.67,0,0,1-.08-.93,2.54,2.54,0,0,1-2.24,1.15,2.29,2.29,0,0,1-2.48-2.2A2.25,2.25,0,0,1,89.06,30.38Zm2.41,1.15V31.2l-1.9.29c-.54.09-1,.39-1,1a1,1,0,0,0,1.07.94A1.66,1.66,0,0,0,91.47,31.53Z" transform="translate(-1 -1)"/><path class="cls-1" d="M101.54,33.23c0,.66.06,1.21.07,1.33H100a7.18,7.18,0,0,1-.08-.94,2.4,2.4,0,0,1-2.14,1.12,3.55,3.55,0,0,1-3.51-3.85,3.59,3.59,0,0,1,3.48-3.82,2.22,2.22,0,0,1,2.14,1v-4.4h1.7Zm-3.62,0c1.14,0,1.94-.94,1.94-2.34s-.78-2.26-1.92-2.26a2,2,0,0,0-2,2.28C96,32.28,96.74,33.21,97.92,33.21Z" transform="translate(-1 -1)"/><path class="cls-1" d="M104.06,23.56a1.14,1.14,0,0,1,1.14,1.14,1.14,1.14,0,0,1-2.27,0A1.14,1.14,0,0,1,104.06,23.56Zm-.86,11v-7.3h1.73v7.3Z" transform="translate(-1 -1)"/><path class="cls-1" d="M108.34,30.38l1.88-.29c.42-.06.54-.27.54-.52,0-.62-.42-1.11-1.38-1.11a1.4,1.4,0,0,0-1.5,1.32l-1.59-.36A2.86,2.86,0,0,1,109.36,27c2.25,0,3.11,1.27,3.11,2.72v3.63a6.17,6.17,0,0,0,.09,1.17h-1.62a3.67,3.67,0,0,1-.08-.93,2.54,2.54,0,0,1-2.25,1.15,2.28,2.28,0,0,1-2.47-2.2A2.25,2.25,0,0,1,108.34,30.38Zm2.42,1.15V31.2l-1.91.29a1,1,0,0,0-1,1,1,1,0,0,0,1.06.94A1.66,1.66,0,0,0,110.76,31.53Z" transform="translate(-1 -1)"/><path class="cls-1" d="M115.75,34.56H114v-7.3h1.7v1a2.44,2.44,0,0,1,2.16-1.18,2.58,2.58,0,0,1,2.63,2.89v4.62h-1.74V30.24c0-.9-.4-1.62-1.49-1.62a1.54,1.54,0,0,0-1.52,1.73Z" transform="translate(-1 -1)"/><path class="cls-1" d="M72.68,38.33h1.86L71.55,49H69.7l-2.58-8-2.58,8H62.7l-3-10.63h1.89L63.7,46.1l2.49-7.77h1.87l2.53,7.83Z" transform="translate(-1 -1)"/><path class="cls-1" d="M81,46.88a3.28,3.28,0,0,1-3.3,2.3,3.88,3.88,0,0,1-.18-7.74c2.25,0,3.57,1.48,3.57,3.79a3.2,3.2,0,0,1,0,.55H75.69a2,2,0,0,0,2,1.91,1.77,1.77,0,0,0,1.83-1.28Zm-1.66-2.37a1.63,1.63,0,0,0-1.8-1.62,1.76,1.76,0,0,0-1.79,1.62Z" transform="translate(-1 -1)"/><path class="cls-1" d="M83.2,46.56a1.37,1.37,0,0,0,1.49,1.24c.72,0,1.09-.38,1.09-.83s-.27-.69-.85-.81l-1.08-.24a2.21,2.21,0,0,1-2-2.13,2.52,2.52,0,0,1,2.68-2.35,2.57,2.57,0,0,1,2.82,2l-1.47.42a1.26,1.26,0,0,0-1.35-1.09,1,1,0,0,0-1,.84.79.79,0,0,0,.73.76l1.11.23a2.3,2.3,0,0,1,2.1,2.22,2.48,2.48,0,0,1-2.76,2.33,2.75,2.75,0,0,1-3-2.2Z" transform="translate(-1 -1)"/><path class="cls-1" d="M91.07,41.66h1.51V43.2H91.07v3.39c0,.65.28.92.93.92a4.51,4.51,0,0,0,.6-.06v1.43a2.65,2.65,0,0,1-1.07.17,2,2,0,0,1-2.18-2.17V43.2H88V41.66h.37a1,1,0,0,0,1.13-1.14V39.43h1.57Z" transform="translate(-1 -1)"/><path class="cls-1" d="M100.12,46.88a3.29,3.29,0,0,1-3.3,2.3,3.68,3.68,0,0,1-3.73-3.91,3.65,3.65,0,0,1,3.55-3.83c2.25,0,3.57,1.48,3.57,3.79a2.13,2.13,0,0,1,0,.55H94.82a2,2,0,0,0,2,1.91,1.77,1.77,0,0,0,1.83-1.28Zm-1.67-2.37a1.63,1.63,0,0,0-1.8-1.62,1.75,1.75,0,0,0-1.78,1.62Z" transform="translate(-1 -1)"/><path class="cls-1" d="M105.68,43.38a3.82,3.82,0,0,0-.57,0c-1.35,0-2,.78-2,2.14V49h-1.73v-7.3h1.69v1.17a2.19,2.19,0,0,1,2.11-1.26,3.39,3.39,0,0,1,.47,0Z" transform="translate(-1 -1)"/><path class="cls-1" d="M108.25,49h-1.74v-7.3h1.69v1a2.42,2.42,0,0,1,2.16-1.18A2.58,2.58,0,0,1,113,44.34V49h-1.74V44.64c0-.9-.4-1.62-1.5-1.62a1.53,1.53,0,0,0-1.51,1.73Z" transform="translate(-1 -1)"/><path class="cls-1" d="M122.34,38.33c2,0,3.23,1.2,3.23,2.87A2.37,2.37,0,0,1,124,43.49,2.54,2.54,0,0,1,125.9,46,3,3,0,0,1,122.61,49h-3.93V38.33Zm-.24,4.5a1.48,1.48,0,0,0,1.68-1.48c0-.9-.63-1.49-1.73-1.49h-1.59v3Zm.19,4.6c1.08,0,1.78-.58,1.78-1.53a1.53,1.53,0,0,0-1.72-1.56h-1.89v3.09Z" transform="translate(-1 -1)"/><path class="cls-1" d="M129,44.78l1.87-.29c.42-.06.54-.27.54-.52,0-.62-.42-1.11-1.37-1.11a1.4,1.4,0,0,0-1.5,1.32l-1.59-.36A2.85,2.85,0,0,1,130,41.44c2.25,0,3.1,1.27,3.1,2.72v3.63a7.29,7.29,0,0,0,.09,1.17h-1.62a4.79,4.79,0,0,1-.07-.93,2.56,2.56,0,0,1-2.25,1.15,2.29,2.29,0,0,1-2.47-2.2A2.25,2.25,0,0,1,129,44.78Zm2.41,1.15V45.6l-1.9.29a1,1,0,0,0-1,1,1,1,0,0,0,1.06.94A1.65,1.65,0,0,0,131.39,45.93Z" transform="translate(-1 -1)"/><path class="cls-1" d="M136.39,49h-1.74v-7.3h1.69v1a2.42,2.42,0,0,1,2.16-1.18,2.58,2.58,0,0,1,2.64,2.89V49H139.4V44.64c0-.9-.4-1.62-1.5-1.62a1.53,1.53,0,0,0-1.51,1.73Z" transform="translate(-1 -1)"/><path class="cls-1" d="M146.55,44.75,149.61,49h-2.13l-2.14-3-.9.94v2h-1.72V38.11h1.72v6.5l2.8-3h2.31Z" transform="translate(-1 -1)"/></svg>