<svg width="48" height="43" fill="none" xmlns="http://www.w3.org/2000/svg"><path d="M0 0v43h48V0H0zm31.513 33.697H20.331V13.524h5.617v16.6h5.4c3.73 0 5.295-2.587 5.295-9.25 0-6.662-1.78-8.65-5.563-8.65H18.76V33.7H13.2V12.225H5.042V8.642h27.771c6.698 0 9.88 3.473 9.88 12.179 0 11.471-4.753 12.878-11.18 12.878v-.002z" fill="#43B02A"/><path d="M20.331 13.525v20.174h11.182c6.427 0 11.18-1.407 11.18-12.878 0-8.706-3.182-12.178-9.88-12.178H5.042v3.582H13.2v21.474h5.56V12.225h12.32c3.785 0 5.563 1.948 5.563 8.65 0 6.7-1.566 9.25-5.296 9.25h-5.4v-16.6h-5.616z" fill="#fff"/></svg>